<?xml version="1.0" encoding="UTF-8" standalone="no"?>
<!DOCTYPE svg PUBLIC "-//W3C//DTD SVG 1.1//EN" "http://www.w3.org/Graphics/SVG/1.1/DTD/svg11.dtd">
<svg width="100%" height="100%" viewBox="0 0 1080 1080" version="1.1" xmlns="http://www.w3.org/2000/svg" xmlns:xlink="http://www.w3.org/1999/xlink" xml:space="preserve" xmlns:serif="http://www.serif.com/" style="fill-rule:evenodd;clip-rule:evenodd;stroke-linejoin:round;stroke-miterlimit:2;">
    <g transform="matrix(1,0,0,1,98.134969,18)">
        <g transform="matrix(1.138614,0,0,1.138614,19.013181,-31.472393)">
            <circle cx="371.374" cy="501.902" r="100.38" style="fill:rgb(191,201,209);"/>
        </g>
        <g transform="matrix(1,0,0,1,-98.134969,-18)">
            <g transform="matrix(1,0,0,1,168.625767,-183.931496)">
                <circle cx="371.374" cy="501.902" r="100.38" style="fill:rgb(37,52,63);"/>
            </g>
            <g transform="matrix(1,0,0,1,409.814866,-13.185068)">
                <circle cx="371.374" cy="501.902" r="100.38" style="fill:rgb(37,52,63);"/>
            </g>
            <g transform="matrix(1,0,0,1,309.434498,260.127815)">
                <circle cx="371.374" cy="501.902" r="100.38" style="fill:rgb(37,52,63);"/>
            </g>
            <g transform="matrix(1,0,0,1,27.817035,260.127815)">
                <circle cx="371.374" cy="501.902" r="100.38" style="fill:rgb(37,52,63);"/>
            </g>
            <g transform="matrix(1,0,0,1,-72.563333,-13.185068)">
                <circle cx="371.374" cy="501.902" r="100.38" style="fill:rgb(37,52,63);"/>
            </g>
        </g>
    </g>
</svg>
