<?xml version="1.0" encoding="UTF-8" standalone="no"?>
<!DOCTYPE svg PUBLIC "-//W3C//DTD SVG 1.1//EN" "http://www.w3.org/Graphics/SVG/1.1/DTD/svg11.dtd">
<svg width="100%" height="100%" viewBox="0 0 2400 1080" version="1.1" xmlns="http://www.w3.org/2000/svg" xmlns:xlink="http://www.w3.org/1999/xlink" xml:space="preserve" xmlns:serif="http://www.serif.com/" style="fill-rule:evenodd;clip-rule:evenodd;stroke-linejoin:round;stroke-miterlimit:2;">
    <g transform="matrix(1,0,0,1,62.710384,18)">
        <g transform="matrix(1.138614,0,0,1.138614,19.013181,-31.472393)">
            <circle cx="371.374" cy="501.902" r="100.38" style="fill:rgb(191,201,209);"/>
        </g>
        <g transform="matrix(1,0,0,1,-98.134969,-18)">
            <g transform="matrix(1,0,0,1,168.625767,-183.931496)">
                <circle cx="371.374" cy="501.902" r="100.38" style="fill:rgb(37,52,63);"/>
            </g>
            <g transform="matrix(1,0,0,1,409.814866,-13.185068)">
                <circle cx="371.374" cy="501.902" r="100.38" style="fill:rgb(37,52,63);"/>
            </g>
            <g transform="matrix(1,0,0,1,309.434498,260.127815)">
                <circle cx="371.374" cy="501.902" r="100.38" style="fill:rgb(37,52,63);"/>
            </g>
            <g transform="matrix(1,0,0,1,27.817035,260.127815)">
                <circle cx="371.374" cy="501.902" r="100.38" style="fill:rgb(37,52,63);"/>
            </g>
            <g transform="matrix(1,0,0,1,-72.563333,-13.185068)">
                <circle cx="371.374" cy="501.902" r="100.38" style="fill:rgb(37,52,63);"/>
            </g>
        </g>
    </g>
    <g transform="matrix(1,0,0,1,-150.115035,163.789302)">
        <path d="M1211.203,389.57L1211.203,365.383L1298.531,365.242L1298.531,441.742C1285.125,452.429 1271.297,460.469 1257.047,465.859C1242.797,471.25 1228.172,473.945 1213.172,473.945C1192.922,473.945 1174.523,469.609 1157.976,460.937C1141.429,452.265 1128.937,439.726 1120.5,423.32C1112.062,406.914 1107.843,388.586 1107.843,368.336C1107.843,348.273 1112.039,329.547 1120.429,312.156C1128.82,294.765 1140.89,281.851 1156.64,273.414C1172.39,264.976 1190.531,260.758 1211.062,260.758C1225.968,260.758 1239.445,263.172 1251.492,268C1263.539,272.828 1272.984,279.554 1279.828,288.179C1286.672,296.804 1291.875,308.054 1295.437,321.929L1270.828,328.679C1267.734,318.179 1263.89,309.929 1259.297,303.929C1254.703,297.929 1248.14,293.125 1239.609,289.515C1231.078,285.906 1221.609,284.101 1211.203,284.101C1198.734,284.101 1187.953,286 1178.859,289.797C1169.765,293.594 1162.429,298.586 1156.851,304.773C1151.273,310.961 1146.937,317.758 1143.843,325.164C1138.593,337.914 1135.968,351.742 1135.968,366.648C1135.968,385.023 1139.133,400.398 1145.461,412.773C1151.789,425.148 1161,434.336 1173.093,440.336C1185.187,446.336 1198.031,449.336 1211.625,449.336C1223.437,449.336 1234.968,447.062 1246.218,442.515C1257.468,437.969 1266,433.117 1271.812,427.961L1271.812,389.57L1211.203,389.57Z" style="fill:rgb(37,52,63);fill-rule:nonzero;"/>
        <path d="M1335.234,470.429L1335.234,321.086L1358.015,321.086L1358.015,343.726C1363.828,333.133 1369.195,326.148 1374.117,322.773C1379.039,319.398 1384.453,317.711 1390.359,317.711C1398.89,317.711 1407.562,320.429 1416.375,325.867L1407.656,349.351C1401.468,345.695 1395.281,343.867 1389.093,343.867C1383.562,343.867 1378.593,345.531 1374.187,348.859C1369.781,352.187 1366.64,356.804 1364.765,362.711C1361.953,371.711 1360.547,381.554 1360.547,392.242L1360.547,470.429L1335.234,470.429Z" style="fill:rgb(37,52,63);fill-rule:nonzero;"/>
        <path d="M1529.297,470.429L1529.297,448.492C1517.672,465.367 1501.875,473.804 1481.906,473.804C1473.093,473.804 1464.867,472.117 1457.226,468.742C1449.586,465.367 1443.914,461.125 1440.211,456.015C1436.508,450.906 1433.906,444.648 1432.406,437.242C1431.375,432.273 1430.859,424.398 1430.859,413.617L1430.859,321.086L1456.172,321.086L1456.172,403.914C1456.172,417.133 1456.687,426.039 1457.718,430.633C1459.312,437.289 1462.687,442.515 1467.843,446.312C1473,450.109 1479.375,452.008 1486.968,452.008C1494.562,452.008 1501.687,450.062 1508.343,446.172C1515,442.281 1519.711,436.984 1522.476,430.281C1525.242,423.578 1526.625,413.851 1526.625,401.101L1526.625,321.086L1551.937,321.086L1551.937,470.429L1529.297,470.429Z" style="fill:rgb(37,52,63);fill-rule:nonzero;"/>
        <path d="M1591.593,527.664L1591.593,321.086L1614.656,321.086L1614.656,340.492C1620.093,332.898 1626.234,327.203 1633.078,323.406C1639.922,319.609 1648.218,317.711 1657.968,317.711C1670.718,317.711 1681.968,320.992 1691.718,327.554C1701.468,334.117 1708.828,343.375 1713.797,355.328C1718.765,367.281 1721.25,380.383 1721.25,394.633C1721.25,409.914 1718.508,423.672 1713.023,435.906C1707.539,448.14 1699.57,457.515 1689.117,464.031C1678.664,470.547 1667.672,473.804 1656.14,473.804C1647.703,473.804 1640.133,472.023 1633.429,468.461C1626.726,464.898 1621.218,460.398 1616.906,454.961L1616.906,527.664L1591.593,527.664ZM1614.515,396.601C1614.515,415.82 1618.406,430.023 1626.187,439.211C1633.968,448.398 1643.39,452.992 1654.453,452.992C1665.703,452.992 1675.336,448.234 1683.351,438.719C1691.367,429.203 1695.375,414.461 1695.375,394.492C1695.375,375.461 1691.461,361.211 1683.633,351.742C1675.804,342.273 1666.453,337.539 1655.578,337.539C1644.797,337.539 1635.258,342.578 1626.961,352.656C1618.664,362.734 1614.515,377.383 1614.515,396.601Z" style="fill:rgb(37,52,63);fill-rule:nonzero;"/>
        <path d="M1751.765,527.664L1751.765,321.086L1774.828,321.086L1774.828,340.492C1780.265,332.898 1786.406,327.203 1793.25,323.406C1800.093,319.609 1808.39,317.711 1818.14,317.711C1830.89,317.711 1842.14,320.992 1851.89,327.554C1861.64,334.117 1869,343.375 1873.968,355.328C1878.937,367.281 1881.422,380.383 1881.422,394.633C1881.422,409.914 1878.679,423.672 1873.195,435.906C1867.711,448.14 1859.742,457.515 1849.289,464.031C1838.836,470.547 1827.843,473.804 1816.312,473.804C1807.875,473.804 1800.304,472.023 1793.601,468.461C1786.898,464.898 1781.39,460.398 1777.078,454.961L1777.078,527.664L1751.765,527.664ZM1774.687,396.601C1774.687,415.82 1778.578,430.023 1786.359,439.211C1794.14,448.398 1803.562,452.992 1814.625,452.992C1825.875,452.992 1835.508,448.234 1843.523,438.719C1851.539,429.203 1855.547,414.461 1855.547,394.492C1855.547,375.461 1851.633,361.211 1843.804,351.742C1835.976,342.273 1826.625,337.539 1815.75,337.539C1804.968,337.539 1795.429,342.578 1787.133,352.656C1778.836,362.734 1774.687,377.383 1774.687,396.601Z" style="fill:rgb(37,52,63);fill-rule:nonzero;"/>
        <path d="M1905.89,404.195L1931.625,401.945C1932.843,412.258 1935.679,420.719 1940.133,427.328C1944.586,433.937 1951.5,439.281 1960.875,443.359C1970.25,447.437 1980.797,449.476 1992.515,449.476C2002.922,449.476 2012.109,447.929 2020.078,444.836C2028.047,441.742 2033.976,437.5 2037.867,432.109C2041.758,426.719 2043.703,420.836 2043.703,414.461C2043.703,407.992 2041.828,402.344 2038.078,397.515C2034.328,392.687 2028.14,388.633 2019.515,385.351C2013.984,383.195 2001.75,379.844 1982.812,375.297C1963.875,370.75 1950.609,366.461 1943.015,362.429C1933.172,357.273 1925.836,350.875 1921.008,343.234C1916.179,335.594 1913.765,327.039 1913.765,317.57C1913.765,307.164 1916.718,297.437 1922.625,288.39C1928.531,279.344 1937.156,272.476 1948.5,267.789C1959.843,263.101 1972.453,260.758 1986.328,260.758C2001.609,260.758 2015.086,263.219 2026.758,268.14C2038.429,273.062 2047.406,280.304 2053.687,289.867C2059.968,299.429 2063.343,310.258 2063.812,322.351L2037.656,324.32C2036.25,311.289 2031.492,301.445 2023.383,294.789C2015.273,288.133 2003.297,284.804 1987.453,284.804C1970.953,284.804 1958.929,287.828 1951.383,293.875C1943.836,299.922 1940.062,307.211 1940.062,315.742C1940.062,323.148 1942.734,329.242 1948.078,334.023C1953.328,338.804 1967.039,343.703 1989.211,348.719C2011.383,353.734 2026.593,358.117 2034.843,361.867C2046.843,367.398 2055.703,374.406 2061.422,382.89C2067.14,391.375 2070,401.148 2070,412.211C2070,423.179 2066.859,433.515 2060.578,443.219C2054.297,452.922 2045.273,460.469 2033.508,465.859C2021.742,471.25 2008.5,473.945 1993.781,473.945C1975.125,473.945 1959.492,471.226 1946.883,465.789C1934.273,460.351 1924.383,452.172 1917.211,441.25C1910.039,430.328 1906.265,417.976 1905.89,404.195Z" style="fill:rgb(37,52,63);fill-rule:nonzero;"/>
        <path d="M2206.265,422.336L2232.422,425.57C2228.297,440.851 2220.656,452.711 2209.5,461.148C2198.343,469.586 2184.093,473.804 2166.75,473.804C2144.906,473.804 2127.586,467.078 2114.789,453.625C2101.992,440.172 2095.593,421.304 2095.593,397.023C2095.593,371.898 2102.062,352.398 2115,338.523C2127.937,324.648 2144.718,317.711 2165.343,317.711C2185.312,317.711 2201.625,324.508 2214.281,338.101C2226.937,351.695 2233.265,370.82 2233.265,395.476C2233.265,396.976 2233.218,399.226 2233.125,402.226L2121.75,402.226C2122.687,418.633 2127.328,431.195 2135.672,439.914C2144.015,448.633 2154.422,452.992 2166.89,452.992C2176.172,452.992 2184.093,450.554 2190.656,445.679C2197.218,440.804 2202.422,433.023 2206.265,422.336ZM2123.156,381.414L2206.547,381.414C2205.422,368.851 2202.234,359.429 2196.984,353.148C2188.922,343.398 2178.468,338.523 2165.625,338.523C2154,338.523 2144.226,342.414 2136.304,350.195C2128.383,357.976 2124,368.383 2123.156,381.414Z" style="fill:rgb(37,52,63);fill-rule:nonzero;"/>
        <path d="M2247.328,470.429L2301.89,392.804L2251.406,321.086L2283.047,321.086L2305.968,356.101C2310.281,362.758 2313.75,368.336 2316.375,372.836C2320.5,366.648 2324.297,361.164 2327.765,356.383L2352.937,321.086L2383.172,321.086L2331.562,391.398L2387.109,470.429L2356.031,470.429L2325.375,424.023L2317.218,411.508L2277.984,470.429L2247.328,470.429Z" style="fill:rgb(37,52,63);fill-rule:nonzero;"/>
    </g>
</svg>
